<?xml version="1.0" standalone="no"?>
<!DOCTYPE svg PUBLIC "-//W3C//DTD SVG 20010904//EN"
 "http://www.w3.org/TR/2001/REC-SVG-20010904/DTD/svg10.dtd">
<svg version="1.0" xmlns="http://www.w3.org/2000/svg"
 width="1538.000000pt" height="206.000000pt" viewBox="0 0 1538.000000 206.000000"
 preserveAspectRatio="xMidYMid meet">

<g transform="translate(0.000000,206.000000) scale(0.100000,-0.100000)"
fill="#000000" stroke="none">
<path d="M1547 1975 c-72 -25 -102 -71 -95 -147 6 -60 44 -104 103 -120 37
-10 45 -19 104 -121 66 -113 101 -147 153 -147 32 0 58 9 58 21 0 4 -31 60
-70 124 -96 159 -103 174 -91 189 6 6 13 30 16 51 14 96 -88 181 -178 150z
m75 -82 c36 -32 12 -103 -35 -103 -49 0 -75 64 -40 102 20 22 51 23 75 1z"/>
<path d="M1822 1859 l-24 -9 30 -52 c16 -29 55 -101 86 -159 l56 -106 -100
-173 c-54 -95 -102 -186 -105 -201 -9 -41 11 -101 43 -132 l29 -28 137 236
c168 289 165 271 75 442 -71 135 -99 169 -148 183 -42 12 -49 12 -79 -1z"/>
<path d="M1011 1833 c-38 -19 -71 -66 -71 -102 l0 -24 178 6 177 7 103 -163
c56 -90 112 -173 125 -185 42 -40 111 -53 160 -31 24 11 24 11 -96 203 -210
334 -174 306 -387 306 -124 0 -162 -4 -189 -17z"/>
<path d="M741 1642 c-49 -26 -73 -75 -68 -135 10 -113 143 -164 230 -88 32 28
35 29 167 33 113 3 140 6 164 23 24 16 56 68 56 90 0 3 -78 5 -174 5 l-174 0
-16 25 c-40 61 -121 81 -185 47z m99 -82 c11 -11 20 -29 20 -40 0 -11 -9 -29
-20 -40 -11 -11 -29 -20 -40 -20 -11 0 -29 9 -40 20 -11 11 -20 29 -20 40 0
11 9 29 20 40 11 11 29 20 40 20 11 0 29 -9 40 -20z"/>
<path d="M2172 1461 c-60 -39 -85 -105 -62 -166 9 -23 2 -40 -55 -139 -70
-121 -79 -160 -50 -215 28 -55 38 -46 126 107 l84 145 48 12 c124 31 157 157
63 244 -36 34 -110 39 -154 12z m106 -67 c43 -30 20 -104 -33 -104 -53 0 -76
74 -33 104 12 9 27 16 33 16 6 0 21 -7 33 -16z"/>
<path d="M745 1346 c-43 -19 -65 -46 -144 -180 -44 -74 -71 -131 -71 -148 0
-34 20 -76 47 -101 19 -17 22 -13 114 135 l95 153 215 5 c185 4 219 8 242 23
34 22 67 74 67 105 l0 22 -267 0 c-201 -1 -276 -4 -298 -14z"/>
<path d="M819 991 c-77 -139 -86 -151 -112 -151 -57 0 -112 -45 -128 -103 -13
-49 9 -116 48 -147 84 -66 210 -10 221 98 2 27 0 57 -5 67 -8 14 4 43 56 133
73 128 81 170 45 218 -11 15 -25 29 -31 31 -6 2 -48 -64 -94 -146z m-62 -267
c15 -24 15 -29 2 -53 -27 -48 -109 -32 -109 22 0 56 76 77 107 31z"/>
<path d="M2331 1109 c-11 -19 -53 -88 -94 -154 l-74 -120 -214 -5 c-204 -5
-216 -6 -247 -28 -34 -25 -49 -47 -62 -93 l-9 -29 231 0 231 0 -44 -40 -44
-39 -138 -1 -137 0 -35 -32 c-19 -18 -37 -45 -41 -60 l-6 -28 179 0 180 0 11
-26 c16 -34 92 -68 135 -59 134 28 160 202 40 263 l-37 20 30 6 c43 10 80 53
158 182 53 90 66 120 66 153 0 44 -18 89 -44 110 -13 11 -19 8 -35 -20z m-147
-541 c9 -12 16 -29 16 -37 0 -20 -40 -61 -60 -61 -22 0 -60 37 -60 58 0 56 74
84 104 40z"/>
<path d="M1062 968 c-22 -40 -81 -149 -132 -241 -115 -210 -115 -208 -16 -377
74 -126 112 -169 154 -171 42 -2 76 2 84 9 4 4 -31 75 -77 157 -47 83 -85 155
-85 161 0 6 41 87 92 180 102 188 114 232 80 293 -10 19 -28 41 -39 48 -20 13
-23 10 -61 -59z"/>
<path d="M1277 708 c-15 -12 -8 -27 69 -148 250 -394 211 -360 413 -360 193 1
244 22 266 113 l7 27 -183 0 -184 0 -106 168 c-118 187 -144 212 -219 212 -25
0 -54 -6 -63 -12z"/>
<path d="M1101 610 c-21 -9 -22 -12 -9 -33 8 -12 49 -79 91 -148 76 -124 77
-127 62 -155 -20 -39 -19 -70 5 -119 68 -140 270 -79 257 78 -5 59 -33 91 -98
114 -43 16 -51 24 -110 121 -35 58 -75 113 -89 123 -32 24 -78 31 -109 19z
m307 -356 c56 -39 -7 -134 -64 -96 -18 12 -35 52 -28 65 28 48 54 58 92 31z"/>
</g>
</svg>
